<?xml version="1.0" standalone="no"?>
<!DOCTYPE svg PUBLIC "-//W3C//DTD SVG 20010904//EN"
 "http://www.w3.org/TR/2001/REC-SVG-20010904/DTD/svg10.dtd">
<svg version="1.0" xmlns="http://www.w3.org/2000/svg"
 width="192.000000pt" height="192.000000pt" viewBox="0 0 192.000000 192.000000"
 preserveAspectRatio="xMidYMid meet">
<metadata>
Created by potrace 1.14, written by Peter Selinger 2001-2017
</metadata>
<g transform="translate(0.000000,192.000000) scale(0.100000,-0.100000)"
fill="#000000" stroke="none">
<path d="M1 1813 c1 -70 4 -99 9 -83 8 24 8 24 9 3 1 -12 10 -27 21 -33 21
-11 28 -50 8 -50 -6 0 -9 -3 -5 -6 3 -3 11 -2 18 2 7 4 22 9 33 10 12 1 37 6
57 12 32 8 40 6 63 -13 20 -17 26 -30 23 -52 -4 -26 -7 -28 -43 -25 -21 1 -49
5 -62 7 -19 5 -26 -1 -39 -32 -13 -30 -17 -34 -21 -18 -2 10 1 21 7 23 14 5
15 42 1 42 -5 0 -10 -8 -10 -19 0 -10 -7 -24 -15 -31 -12 -10 -15 -9 -15 7 0
28 -10 34 -26 18 -23 -23 -16 -40 21 -54 19 -7 35 -15 35 -19 -1 -16 -17 -27
-40 -27 l-25 0 -2 -232 c-2 -209 3 -260 21 -220 3 6 4 3 3 -8 -2 -11 -9 -19
-15 -18 -7 2 -12 -9 -12 -28 0 -23 4 -30 15 -26 8 4 17 2 20 -2 2 -5 -4 -11
-15 -14 -20 -5 -20 -14 -20 -466 l0 -461 455 0 c250 1 455 4 455 8 0 4 -14 15
-30 24 -25 14 -30 15 -30 2 0 -16 -35 -11 -82 13 -15 7 -30 13 -33 13 -3 -1
-17 8 -32 20 l-26 20 49 1 c40 0 45 2 27 9 -15 6 -23 18 -23 32 0 24 -16 56
-23 48 -3 -3 -16 -21 -29 -41 l-25 -37 -18 35 c-16 28 -24 34 -45 31 -15 -2
-32 2 -39 9 -8 9 -9 13 0 13 6 0 9 6 6 14 -6 16 51 20 70 5 6 -6 30 -12 52
-13 l41 -3 0 63 c0 36 -4 64 -10 64 -5 0 -10 -12 -10 -26 0 -21 -2 -23 -13
-12 -7 7 -16 21 -20 30 -3 10 -11 18 -17 18 -13 0 -13 -6 1 -32 8 -15 8 -19 0
-14 -7 5 -11 -1 -11 -15 l0 -23 -20 22 c-25 26 -36 28 -44 5 -6 -14 -9 -12
-21 11 -8 16 -15 41 -15 57 0 16 -4 29 -10 29 -5 0 -10 -25 -10 -55 0 -41 4
-56 17 -64 10 -5 14 -13 10 -17 -5 -5 -11 -4 -15 2 -10 16 -41 24 -47 14 -15
-24 -53 23 -47 57 4 19 -15 24 -23 5 -13 -30 -24 15 -24 101 -1 48 -5 77 -12
77 -7 0 -8 11 -4 30 4 19 3 30 -4 30 -6 0 -11 9 -11 21 0 18 -2 19 -15 6 -8
-9 -12 -26 -10 -43 4 -26 3 -25 -16 11 -12 22 -26 43 -31 46 -5 3 -9 10 -9 15
0 5 -7 10 -17 11 -34 3 -62 16 -55 26 4 7 0 8 -11 4 -11 -5 -30 1 -49 15 -18
13 -40 21 -49 20 -10 -2 -18 2 -18 8 0 7 7 10 15 6 11 -4 15 2 15 27 0 73 71
170 184 256 53 40 57 46 52 75 -3 17 -2 88 2 157 4 77 3 136 -3 154 -7 21 -7
29 2 32 8 3 10 19 6 51 -4 37 -2 51 11 61 9 7 17 11 17 7 1 -3 2 -9 3 -13 7
-40 40 -42 133 -8 37 13 92 26 122 29 30 3 57 9 60 13 3 4 24 9 46 11 22 2 41
8 43 13 2 5 13 2 25 -6 38 -27 74 -16 45 14 -11 10 -10 15 4 25 12 9 14 16 6
30 -13 23 -4 30 22 16 16 -8 19 -17 14 -33 -4 -12 -8 -35 -9 -51 -1 -16 -9
-33 -18 -38 -10 -5 -17 -20 -17 -33 0 -21 4 -23 43 -22 42 2 42 2 51 50 7 33
14 47 26 47 9 0 20 4 26 10 5 5 23 9 39 10 68 0 242 -18 271 -29 26 -10 39 -9
68 3 36 15 36 15 58 -14 12 -17 27 -30 34 -30 7 0 15 -6 18 -12 3 -7 4 -2 3
12 -1 14 -8 24 -14 23 -6 -1 -9 6 -6 18 4 14 8 17 13 9 4 -6 11 -12 16 -13 10
-2 10 -20 0 -57 -6 -22 -1 -28 32 -47 53 -30 74 -11 53 49 -12 33 4 69 26 61
8 -3 13 3 13 17 0 19 -4 21 -45 16 -50 -5 -59 3 -73 70 l-8 38 -22 -35 c-19
-30 -22 -31 -22 -11 0 15 -9 26 -25 32 -36 14 -44 58 -15 82 24 20 40 17 23
-4 -6 -8 -7 -22 -2 -33 7 -19 8 -19 8 3 1 12 10 31 20 41 15 15 16 21 6 24
-15 6 -51 3 -82 -7 -15 -5 -23 -3 -23 4 0 6 5 8 13 4 8 -6 8 -3 -1 9 -8 9 -11
21 -8 26 4 6 2 18 -5 29 -11 17 -16 16 -90 -20 -44 -21 -86 -50 -95 -63 -9
-13 -36 -34 -60 -46 -25 -12 -52 -32 -61 -46 -9 -13 -22 -22 -28 -19 -7 2 -22
-2 -34 -10 -20 -14 -21 -14 -21 10 0 14 -4 26 -10 26 -13 0 -41 44 -43 69 -1
12 -7 21 -13 21 -7 0 -19 3 -28 6 -28 11 -18 -23 16 -55 29 -27 30 -31 13 -31
-20 -1 -20 -1 -1 -15 11 -8 17 -18 13 -21 -10 -11 -38 17 -35 35 3 13 -7 16
-57 15 -38 0 -60 -5 -61 -12 -1 -7 -2 -17 -3 -23 -1 -8 -5 -8 -14 0 -9 7 -17
7 -24 0 -15 -15 -34 13 -40 60 -5 37 -4 39 16 34 11 -3 21 -10 21 -16 0 -7 4
-7 12 1 10 10 10 15 1 20 -6 4 -13 18 -14 32 -4 28 -32 38 -54 20 -11 -9 -12
-16 -2 -30 16 -27 2 -36 -28 -16 -24 16 -25 15 -51 -14 -15 -16 -30 -30 -33
-30 -3 0 -14 19 -23 43 -10 23 -35 61 -57 85 -43 46 -65 57 -32 16 31 -39 26
-61 -5 -25 -37 44 -59 55 -61 30 -1 -10 3 -19 8 -19 6 0 7 6 4 13 -4 6 0 3 9
-8 8 -11 20 -26 26 -32 8 -10 7 -13 -2 -13 -19 1 -95 38 -79 39 11 1 10 6 -4
21 -16 18 -31 20 -142 20 -80 0 -123 -4 -123 -11 0 -5 5 -7 10 -4 5 3 10 1 10
-5 0 -7 -6 -10 -14 -7 -8 3 -17 1 -19 -6 -2 -7 -8 -9 -12 -5 -4 4 -2 14 5 23
11 13 8 15 -24 15 l-36 0 1 -107z m33 16 c-1 -43 -5 -64 -14 -67 -9 -3 -11 1
-7 12 4 10 7 42 7 72 0 31 3 53 8 51 4 -3 7 -33 6 -68z m292 3 c-2 -1 -16 3
-32 9 -27 10 -27 12 -9 19 13 5 24 2 32 -9 6 -9 10 -17 9 -19z m88 -13 c2 -2
9 -20 14 -39 l10 -35 2 35 c1 34 2 34 11 10 10 -24 11 -24 25 -6 12 17 14 17
14 3 0 -9 10 -25 21 -36 l22 -20 -39 4 c-60 5 -84 -20 -84 -87 0 -29 4 -58 8
-64 14 -21 51 -35 70 -26 26 14 81 22 86 13 3 -4 -18 -13 -45 -20 -35 -9 -53
-20 -58 -34 -5 -14 -10 -17 -15 -9 -4 7 -17 10 -32 6 -18 -5 -24 -2 -24 10 0
9 -4 16 -9 16 -19 0 -41 32 -41 58 -1 30 -21 62 -39 62 -14 0 -14 20 -1 40 9
13 14 11 35 -13 17 -19 25 -23 25 -13 0 9 -4 16 -8 16 -4 0 -16 13 -25 30 -17
28 -17 30 3 50 23 23 26 46 8 53 -7 3 4 4 25 2 21 -1 39 -4 41 -6z m-218 -71
c-10 -6 -20 -7 -24 -3 -9 8 20 25 31 18 5 -3 2 -10 -7 -15z m449 -26 c-11 -11
-25 15 -19 33 7 17 8 16 16 -5 5 -13 6 -25 3 -28z m-55 -63 c0 -6 -4 -7 -10
-4 -5 3 -10 11 -10 16 0 6 5 7 10 4 6 -3 10 -11 10 -16z m210 1 c0 -5 -5 -10
-11 -10 -5 0 -7 5 -4 10 3 6 8 10 11 10 2 0 4 -4 4 -10z m450 -20 c0 -20 -5
-30 -15 -30 -18 0 -19 14 -5 41 15 27 20 24 20 -11z m-690 -9 c0 -11 -4 -22
-9 -25 -11 -7 -20 14 -13 32 7 19 22 14 22 -7z m395 -56 c-6 -32 -21 -54 -23
-33 0 7 -3 30 -5 50 -5 34 -4 36 15 25 15 -9 18 -19 13 -42z m451 18 c-7 -7
-26 7 -26 19 0 6 6 6 15 -2 9 -7 13 -15 11 -17z m-1256 -50 c0 -13 3 -14 12
-5 17 17 25 15 31 -7 4 -16 -2 -20 -38 -25 -33 -5 -44 -12 -49 -29 -3 -11 -7
-19 -10 -16 -9 9 29 99 41 99 7 0 13 -8 13 -17z m174 -57 c17 -65 17 -69 -7
-60 -12 4 -15 14 -11 34 4 15 1 31 -5 34 -6 4 -11 21 -11 39 0 45 16 23 34
-47z m1254 -11 c-3 -3 -9 2 -12 12 -6 14 -5 15 5 6 7 -7 10 -15 7 -18z m-1352
-26 c-4 -22 -2 -27 9 -22 26 9 45 -17 45 -63 0 -37 3 -44 23 -49 29 -8 31 -35
3 -35 -17 0 -18 2 -6 10 10 6 11 10 3 10 -21 0 -28 -4 -25 -15 1 -5 -5 -1 -13
9 -8 11 -15 32 -15 48 0 25 -33 68 -52 68 -11 0 -10 -18 2 -25 6 -3 10 -17 10
-30 0 -31 -40 -31 -41 0 0 16 -3 14 -15 -10 -7 -16 -11 -40 -9 -52 3 -14 1
-23 -7 -24 -7 0 -21 -2 -31 -4 -23 -4 -34 22 -19 46 7 10 12 28 12 40 0 19 2
20 16 8 15 -12 16 -11 9 10 -4 15 -3 21 3 17 5 -3 13 4 16 17 7 21 7 21 16 2
9 -22 14 -9 11 32 -2 22 36 56 52 46 5 -3 6 -18 3 -34z m-201 -78 c3 -5 1 -12
-5 -16 -5 -3 -10 1 -10 9 0 18 6 21 15 7z m168 -96 c-4 -27 -2 -35 10 -35 9 0
19 9 22 20 3 11 13 20 21 20 44 0 -20 -69 -102 -111 -35 -17 -61 -35 -58 -40
11 -18 -7 -29 -26 -16 -11 6 -20 15 -20 18 0 10 81 89 91 89 20 0 49 36 49 62
0 16 4 28 9 28 6 0 7 -16 4 -35z m-152 -78 c-6 -6 -11 -20 -12 -31 0 -20 -1
-20 -8 -1 -5 11 -1 35 8 60 16 39 16 40 19 11 2 -16 -1 -33 -7 -39z m245 36
c-2 -16 -4 -37 -5 -47 -1 -25 -9 -16 -21 23 -5 19 -5 29 1 26 5 -4 9 1 9 9 0
9 4 16 9 16 6 0 8 -12 7 -27z m-38 -93 c-7 -11 -15 -15 -17 -9 -2 6 3 15 10
20 20 12 21 11 7 -11z m-67 -33 c-1 -12 -15 -9 -19 4 -3 6 1 10 8 8 6 -3 11
-8 11 -12z m-71 -68 c0 -6 -4 -7 -10 -4 -5 3 -10 11 -10 16 0 6 5 7 10 4 6 -3
10 -11 10 -16z m154 -557 l25 -77 -2 60 c-2 61 7 90 24 80 5 -4 9 -15 9 -26 0
-10 10 -47 21 -81 15 -43 18 -63 10 -66 -12 -4 -16 -42 -3 -42 14 0 8 -104 -7
-116 -10 -8 -12 -21 -8 -42 4 -18 3 -32 -1 -32 -5 0 -13 26 -19 57 -14 80 -51
212 -69 247 -8 16 -14 34 -14 40 0 6 -7 24 -15 40 -8 15 -13 32 -10 37 14 21
35 -9 59 -79z m-119 28 c13 -6 15 -9 5 -9 -8 0 -22 4 -30 9 -18 12 -2 12 25 0z
m-69 -267 c-8 -15 -15 -22 -16 -15 0 17 20 55 27 49 2 -3 -2 -18 -11 -34z
m443 -12 c7 -5 12 -14 9 -21 -2 -8 -11 -5 -28 9 -17 14 -20 20 -10 21 8 0 21
-4 29 -9z m-162 -113 c-3 -8 -6 -5 -6 6 -1 11 2 17 5 13 3 -3 4 -12 1 -19z
m-20 -25 c-3 -10 -5 -4 -5 12 0 17 2 24 5 18 2 -7 2 -21 0 -30z m100 -70 c-3
-10 -5 -5 -5 12 0 17 2 24 5 18 2 -7 2 -21 0 -30z"/>
<path d="M370 1787 c0 -14 7 -27 15 -31 10 -4 15 1 15 14 0 11 0 23 1 28 0 4
-7 8 -15 10 -11 2 -16 -4 -16 -21z"/>
<path d="M332 410 c0 -14 2 -19 5 -12 2 6 2 18 0 25 -3 6 -5 1 -5 -13z"/>
<path d="M312 285 c0 -11 4 -33 8 -50 7 -27 8 -27 8 -5 0 14 -4 36 -8 50 -6
20 -8 21 -8 5z"/>
<path d="M507 1913 c-12 -11 -8 -23 7 -17 7 3 27 -11 45 -32 18 -20 35 -33 38
-30 4 3 0 12 -8 19 -9 6 -23 24 -32 40 -17 26 -36 34 -50 20z"/>
<path d="M1004 1858 c1 -57 -1 -62 -23 -68 -43 -10 -36 -28 8 -20 35 6 40 4
46 -14 7 -19 8 -18 15 9 4 17 8 22 9 13 0 -10 6 -18 12 -18 6 0 9 5 7 12 -2 6
9 23 25 37 19 18 26 32 22 43 -8 19 -35 13 -35 -9 0 -8 -5 -11 -11 -7 -6 3 -9
18 -6 32 6 29 -15 51 -49 52 -19 0 -21 -5 -20 -62z"/>
<path d="M1090 1910 c0 -5 7 -10 15 -10 8 0 15 5 15 10 0 6 -7 10 -15 10 -8 0
-15 -4 -15 -10z"/>
<path d="M1155 1910 c-13 -5 -14 -9 -5 -9 8 0 24 4 35 9 13 5 14 9 5 9 -8 0
-24 -4 -35 -9z"/>
<path d="M1355 1910 c4 -6 10 -8 15 -5 5 3 13 -2 18 -11 5 -9 21 -16 36 -16
14 0 26 -4 26 -9 0 -23 18 -5 22 21 l5 30 -64 0 c-41 0 -62 -4 -58 -10z"/>
<path d="M1570 1906 c0 -8 -3 -21 -6 -30 -4 -12 0 -16 15 -16 12 0 21 6 21 13
0 9 10 12 30 9 19 -3 30 0 30 8 0 6 -8 9 -19 5 -10 -3 -24 1 -31 10 -16 19
-40 20 -40 1z"/>
<path d="M1686 1908 c4 -6 0 -14 -7 -19 -12 -7 -11 -9 1 -10 8 -1 26 -3 40 -5
14 -2 55 -4 93 -5 99 -1 82 -19 -20 -21 -49 0 -95 -2 -103 -3 -8 -1 -21 3 -27
8 -8 6 -23 5 -41 -2 -16 -7 -35 -11 -43 -9 -9 2 -13 -4 -11 -15 2 -11 -3 -26
-11 -35 -13 -15 -13 -23 1 -66 14 -44 17 -47 25 -27 6 11 14 21 19 21 4 0 8
13 8 28 0 25 8 33 53 55 49 25 89 37 58 18 -7 -5 -13 -20 -13 -35 0 -15 -6
-26 -13 -26 -8 0 -23 -16 -35 -35 -25 -40 -21 -98 6 -113 13 -7 12 -11 -6 -27
-11 -10 -20 -26 -20 -36 0 -15 5 -17 32 -12 26 5 30 3 25 -10 -7 -20 15 -39
37 -31 9 3 16 1 16 -5 0 -6 -7 -11 -15 -11 -21 0 -19 -26 5 -50 25 -25 31 -25
23 -2 -3 11 0 9 11 -6 10 -12 22 -20 27 -17 5 4 12 -2 15 -12 3 -10 12 -32 21
-49 14 -30 14 -33 -7 -54 -21 -21 -22 -47 -1 -42 14 3 14 2 0 -37 -7 -20 -18
-31 -30 -31 -10 0 -19 -5 -19 -11 0 -6 -9 -8 -20 -4 -13 4 -20 2 -21 -7 -1 -7
-2 -17 -4 -23 -1 -5 -3 -17 -3 -25 -2 -13 -4 -13 -16 0 -12 12 -13 26 -5 66
12 68 -1 110 -31 94 -24 -13 -42 -44 -32 -55 4 -5 2 -5 -5 -1 -16 9 -6 36 20
57 20 16 20 16 -3 65 -37 76 -50 84 -52 32 0 -24 -1 -51 0 -60 2 -23 -3 -23
-38 4 -32 23 -37 47 -18 77 9 15 9 23 -1 35 -15 17 -46 21 -55 7 -16 -25 -24
-211 -10 -232 3 -5 -2 -35 -11 -68 -8 -32 -15 -63 -15 -69 0 -6 35 -35 78 -65
135 -96 212 -194 212 -271 0 -43 -54 -86 -143 -115 -22 -8 -36 -18 -34 -25 7
-18 -18 -61 -27 -47 -4 6 -4 16 -1 21 3 6 2 10 -2 10 -17 0 -33 -25 -33 -51 0
-15 -4 -29 -10 -31 -5 -1 -11 -51 -12 -110 -1 -60 -6 -99 -10 -88 -7 20 -38
18 -38 -2 0 -5 -4 -6 -10 -3 -5 3 -10 1 -10 -5 0 -6 -6 -10 -12 -9 -34 4 -49
-3 -58 -27 -6 -14 -15 -22 -21 -19 -6 4 -8 13 -5 21 3 8 1 14 -5 14 -7 0 -9
-10 -5 -24 6 -26 -15 -52 -34 -41 -7 4 -16 -6 -23 -24 -14 -37 -29 -39 -50 -7
-9 13 -23 30 -31 39 -19 18 -11 26 33 29 18 1 35 6 37 10 3 4 13 8 23 8 10 0
28 11 40 24 21 22 23 31 16 81 -7 61 -25 66 -25 7 0 -40 -18 -76 -27 -54 -6
16 -21 15 -40 -3 -18 -19 -33 -11 -33 18 -1 22 -1 22 -21 -2 -17 -21 -22 -22
-30 -10 -5 9 -9 -21 -9 -84 0 -95 -1 -98 -25 -107 -14 -5 -25 -11 -25 -13 0
-3 28 -5 62 -6 34 -1 63 -2 64 -4 9 -9 -12 -61 -28 -65 -10 -2 -17 -10 -15
-16 2 -7 58 -12 172 -14 l167 -2 -5 27 c-5 28 10 73 25 73 5 0 6 -22 2 -50
l-7 -50 38 0 c32 0 36 2 25 15 -7 8 -10 27 -7 42 3 15 1 37 -4 50 -5 14 -5 23
1 23 6 0 10 -7 10 -15 0 -7 7 -18 15 -23 13 -7 14 -14 5 -37 -13 -33 -7 -43
16 -24 15 12 16 11 10 -9 l-7 -22 145 0 146 0 0 176 c0 147 -2 175 -14 171
-15 -6 -30 39 -16 48 9 5 7 84 -3 105 -9 22 -26 124 -21 129 2 3 13 -5 24 -17
12 -12 23 -22 26 -22 2 0 4 178 3 396 0 320 -3 393 -14 384 -9 -7 -16 -6 -25
5 -10 12 -10 15 2 15 10 0 15 10 14 33 -1 25 -5 32 -19 30 -14 -1 -17 4 -14
18 3 10 -2 24 -11 31 -13 11 -15 10 -9 -4 9 -26 0 -22 -35 15 -18 17 -35 31
-37 29 -3 -2 -7 1 -9 7 -2 6 1 11 8 11 6 0 8 6 5 13 -4 6 0 4 8 -5 13 -16 14
-14 11 23 -1 23 3 50 9 62 9 15 9 21 0 24 -7 3 -13 11 -13 19 0 9 4 13 9 9 5
-3 12 -1 15 4 3 5 16 7 27 4 19 -5 21 -3 17 20 -5 28 6 34 32 17 13 -8 13 -13
2 -30 -7 -11 -10 -25 -7 -30 4 -6 -4 -15 -17 -20 -22 -10 -21 -10 5 -6 22 3
31 -1 37 -18 6 -13 9 34 9 127 l1 147 -120 -1 c-80 0 -118 -4 -114 -11z m34
-209 c0 -6 -4 -7 -10 -4 -5 3 -10 11 -10 16 0 6 5 7 10 4 6 -3 10 -11 10 -16z
m68 -208 c8 -23 7 -31 -3 -35 -10 -3 -12 0 -8 11 4 9 2 14 -3 10 -5 -3 -11 5
-12 19 -3 33 14 30 26 -5z m20 -6 c-3 -3 -9 2 -12 12 -6 14 -5 15 5 6 7 -7 10
-15 7 -18z m52 -55 c0 -5 -7 -10 -15 -10 -8 0 -15 5 -15 10 0 6 7 10 15 10 8
0 15 -4 15 -10z m-233 -102 c-3 -8 -6 -5 -6 6 -1 11 2 17 5 13 3 -3 4 -12 1
-19z m-52 -54 c18 -43 18 -44 5 -44 -5 0 -10 5 -10 11 0 6 -7 17 -15 25 -8 8
-12 21 -9 29 9 22 12 19 29 -21z m55 -14 c0 -12 -8 -35 -17 -53 -13 -25 -18
-28 -21 -14 -5 22 17 87 29 87 5 0 9 -9 9 -20z m-72 -41 c4 -24 3 -24 -12 -4
-19 24 -20 38 -3 33 6 -3 13 -15 15 -29z m142 -33 c0 -25 -23 -56 -41 -56 -13
0 -31 -7 -41 -17 -10 -9 -21 -13 -26 -9 -4 4 1 14 11 21 18 13 18 13 0 18 -15
4 -14 5 4 6 12 0 25 6 29 12 3 6 15 9 25 6 12 -3 19 0 19 9 0 8 5 14 10 14 6
0 10 -2 10 -4z m-149 -16 c19 -11 27 -40 11 -40 -5 0 -19 11 -32 25 -24 26
-14 33 21 15z m319 -60 c0 -5 -7 -10 -16 -10 -8 0 -12 5 -9 10 3 6 10 10 16
10 5 0 9 -4 9 -10z m9 -40 c41 0 10 -18 -39 -22 -25 -3 -54 -8 -65 -13 -20 -8
-20 -8 -1 13 11 12 30 22 43 22 16 0 22 4 17 13 -6 10 -4 10 7 0 7 -7 24 -13
38 -13z m-179 -10 c0 -5 -4 -10 -10 -10 -5 0 -10 5 -10 10 0 6 5 10 10 10 6 0
10 -4 10 -10z m164 -46 c4 -10 1 -14 -6 -12 -15 5 -23 28 -10 28 5 0 13 -7 16
-16z m-84 -4 c0 -5 -4 -10 -10 -10 -5 0 -10 5 -10 10 0 6 5 10 10 10 6 0 10
-4 10 -10z m10 -70 c0 -12 -8 -12 -35 0 -18 8 -17 9 8 9 15 1 27 -3 27 -9z
m20 -330 c0 -5 -9 -10 -20 -10 -17 0 -18 -3 -9 -26 14 -38 4 -41 -11 -3 -11
26 -11 32 1 40 19 12 39 11 39 -1z m-151 -77 c-5 -16 -25 -75 -44 -133 -28
-80 -33 -109 -25 -122 8 -14 7 -18 -3 -18 -15 0 -37 -61 -37 -101 0 -13 -5
-31 -10 -39 -8 -12 -10 -9 -6 10 9 45 15 115 10 103 -3 -7 -10 -13 -15 -13
-12 0 -12 56 0 97 5 19 5 35 0 40 -10 10 7 109 20 118 8 5 -4 -79 -14 -94 -2
-5 4 -16 14 -25 18 -16 20 -14 39 51 11 37 23 81 27 98 8 35 22 55 41 55 9 0
10 -7 3 -27z m175 -108 c-4 -8 -7 -15 -9 -15 -2 0 -5 7 -9 15 -3 9 0 15 9 15
9 0 12 -6 9 -15z m-178 -211 c-4 -9 -9 -15 -11 -12 -3 3 -3 13 1 22 4 9 9 15
11 12 3 -3 3 -13 -1 -22z"/>
<path d="M607 1880 c3 -11 9 -20 14 -20 11 0 11 3 3 24 -9 23 -23 20 -17 -4z"/>
<path d="M962 1849 c-13 -16 -19 -29 -14 -29 9 0 33 25 46 48 14 23 -9 11 -32
-19z"/>
<path d="M1118 1802 c-31 -19 -39 -39 -10 -23 16 9 51 42 41 40 -2 0 -16 -8
-31 -17z"/>
<path d="M717 1729 c4 -16 8 -17 14 -7 13 19 11 28 -5 28 -9 0 -12 -7 -9 -21z"/>
<path d="M1592 1679 c-12 -20 -16 -49 -6 -49 13 0 44 22 44 31 0 6 -6 16 -13
24 -11 11 -15 10 -25 -6z"/>
<path d="M1625 1511 c-3 -5 -1 -12 5 -16 5 -3 10 1 10 9 0 18 -6 21 -15 7z"/>
<path d="M390 1460 c-9 -6 -10 -10 -3 -10 6 0 15 5 18 10 8 12 4 12 -15 0z"/>
<path d="M841 1442 c-12 -23 -6 -131 8 -145 6 -6 11 -30 11 -54 0 -34 4 -43
18 -43 9 0 27 -3 39 -6 18 -5 25 -1 33 22 9 23 8 31 -4 40 -17 12 -23 29 -7
20 5 -3 18 12 30 34 11 22 17 40 12 40 -13 0 -19 59 -7 63 14 5 0 36 -20 44
-9 3 -19 1 -23 -5 -5 -8 -17 -9 -41 -2 -19 6 -36 10 -37 10 -1 0 -7 -8 -12
-18z m84 -119 c3 -13 2 -23 -3 -23 -10 0 -32 44 -32 63 0 17 27 -14 35 -40z
m-21 -68 c11 -8 15 -15 9 -15 -19 0 -43 12 -43 21 0 13 12 11 34 -6z"/>
<path d="M1689 1333 c12 -24 31 -39 31 -25 0 5 -10 17 -21 28 -22 19 -22 19
-10 -3z"/>
<path d="M1132 1309 c-19 -7 -21 -12 -12 -29 7 -14 19 -20 32 -18 26 4 32 19
16 40 -10 12 -19 14 -36 7z"/>
<path d="M1275 1279 c-7 -20 7 -38 27 -39 15 0 27 37 16 48 -18 18 -36 14 -43
-9z"/>
<path d="M730 1200 c0 -32 9 -37 28 -18 19 19 15 48 -8 48 -16 0 -20 -7 -20
-30z"/>
<path d="M1746 1222 c-3 -6 -1 -14 5 -17 14 -9 20 -2 10 14 -6 8 -11 9 -15 3z"/>
<path d="M585 1198 c-30 -16 -30 -16 -10 -38 34 -37 72 -21 61 26 -7 26 -20
29 -51 12z"/>
<path d="M1187 1184 c-4 -4 -7 -21 -7 -39 0 -17 -5 -36 -11 -42 -8 -8 -8 -13
1 -18 13 -8 77 -11 83 -4 2 2 1 27 -2 54 -5 44 -9 50 -31 53 -14 2 -29 0 -33
-4z"/>
<path d="M895 1117 c-14 -11 -18 -28 -19 -90 -1 -41 2 -79 6 -83 5 -4 17 1 28
11 19 17 19 17 -1 -21 -21 -38 -21 -40 -4 -79 10 -23 19 -34 22 -27 3 8 0 19
-6 25 -6 6 -11 18 -11 27 1 12 2 12 11 -2 20 -35 29 -18 26 45 -3 41 -11 74
-25 97 -25 41 -27 51 -8 44 7 -3 13 -13 12 -22 -2 -26 27 -20 37 8 12 33 -7
80 -31 80 -10 0 -26 -6 -37 -13z"/>
<path d="M696 1068 c-14 -54 -22 -98 -18 -103 12 -11 50 -4 64 13 9 9 15 34
14 57 -1 36 -4 40 -29 43 -16 2 -29 -2 -31 -10z"/>
<path d="M1479 928 c-3 -58 6 -71 30 -39 18 23 18 24 0 42 -24 24 -29 24 -30
-3z"/>
<path d="M250 895 c-20 -24 -6 -28 15 -5 10 11 13 20 8 20 -6 0 -16 -7 -23
-15z"/>
<path d="M1590 885 c13 -14 26 -23 28 -20 7 7 -29 45 -41 45 -6 0 0 -11 13
-25z"/>
<path d="M310 892 c-8 -3 -17 -9 -20 -13 -3 -5 -26 -32 -50 -60 -49 -57 -60
-77 -52 -97 7 -19 104 -66 101 -50 -1 7 0 20 4 28 7 18 20 106 21 140 1 14 5
28 10 31 13 10 3 27 -14 21z"/>
<path d="M1512 875 c-17 -37 -15 -41 9 -19 20 18 20 18 15 -6 -13 -65 -15 -90
-6 -95 5 -3 7 -20 5 -38 -3 -17 -2 -44 1 -59 l5 -28 59 30 c61 31 81 54 72 80
-11 32 -112 147 -124 143 -5 -2 -8 2 -8 7 0 19 -17 10 -28 -15z"/>
<path d="M196 824 c-5 -14 -4 -15 9 -4 17 14 19 20 6 20 -5 0 -12 -7 -15 -16z"/>
<path d="M916 781 c-4 -5 -2 -20 3 -33 9 -21 10 -21 10 10 1 32 -3 39 -13 23z"/>
<path d="M580 598 c0 -20 5 -23 40 -24 27 0 40 4 40 13 0 8 -12 13 -30 13 -16
0 -30 5 -30 10 0 6 -4 10 -10 10 -5 0 -10 -10 -10 -22z"/>
<path d="M676 594 c-4 -14 -5 -29 -1 -32 3 -3 5 -1 5 4 0 5 34 9 75 10 49 1
75 -3 75 -10 0 -6 5 -4 10 4 18 28 17 29 -62 31 -24 1 -49 6 -55 11 -9 7 -13
7 -13 -2 0 -9 -3 -10 -14 -1 -11 9 -15 6 -20 -15z"/>
<path d="M1113 605 c-26 -29 -14 -33 87 -26 36 2 21 19 -17 19 -21 0 -39 5
-41 11 -5 15 -14 13 -29 -4z"/>
<path d="M1020 600 c0 -5 -7 -7 -15 -4 -8 4 -15 2 -15 -4 0 -5 14 -12 30 -14
32 -5 43 15 15 26 -8 3 -15 1 -15 -4z"/>
<path d="M1232 590 c3 -12 16 -14 68 -12 60 2 79 7 69 16 -2 2 -35 6 -72 8
-56 3 -67 1 -65 -12z"/>
<path d="M910 590 c0 -5 5 -10 10 -10 6 0 10 5 10 10 0 6 -4 10 -10 10 -5 0
-10 -4 -10 -10z"/>
<path d="M1060 590 c0 -5 5 -10 10 -10 6 0 10 5 10 10 0 6 -4 10 -10 10 -5 0
-10 -4 -10 -10z"/>
<path d="M1045 532 c-39 -5 -58 -22 -23 -22 15 0 29 -6 31 -12 4 -9 6 -8 6 2
1 15 51 23 51 8 0 -4 20 -7 45 -6 49 1 52 3 31 24 -14 14 -72 14 -95 0 -5 -3
-11 -3 -13 1 -1 5 -16 7 -33 5z"/>
<path d="M740 520 c0 -5 14 -10 30 -10 17 0 30 5 30 10 0 6 -13 10 -30 10 -16
0 -30 -4 -30 -10z"/>
<path d="M816 515 c-3 -8 -4 -15 -3 -15 1 0 16 4 34 9 22 7 33 6 37 -2 2 -7 5
-5 5 4 1 21 -65 25 -73 4z"/>
<path d="M1445 329 c-4 -6 -5 -12 -2 -15 2 -3 7 2 10 11 7 17 1 20 -8 4z"/>
<path d="M988 184 c-3 -25 -7 -28 -45 -31 -34 -2 -45 2 -58 19 l-15 22 0 -26
c0 -52 8 -58 74 -58 l62 0 -3 47 c-3 54 -10 67 -15 27z"/>
<path d="M910 39 c0 -22 16 -41 31 -37 10 2 8 9 -8 27 -15 16 -23 19 -23 10z"/>
<path d="M960 20 c14 -14 28 -18 45 -14 26 6 32 18 15 29 -5 3 -10 1 -10 -4 0
-14 -37 -14 -45 -1 -3 6 -10 10 -16 10 -5 0 0 -9 11 -20z"/>
</g>
</svg>
